<?xml version="1.0" encoding="UTF-8"?>
<svg id="Layer_1" xmlns="http://www.w3.org/2000/svg" version="1.1" viewBox="0 0 65.5 64.5">
  <!-- Generator: Adobe Illustrator 29.1.0, SVG Export Plug-In . SVG Version: 2.1.0 Build 142)  -->
  <defs>
    <style>
      .st0 {
        stroke: #ff7f1f;
      }

      .st0, .st1, .st2, .st3, .st4, .st5 {
        fill: none;
        stroke-miterlimit: 10;
        stroke-width: 2px;
      }

      .st1 {
        stroke: #b79984;
      }

      .st2 {
        stroke: #81acc6;
      }

      .st3 {
        stroke: #f25733;
      }

      .st4 {
        stroke: #22a1ff;
      }

      .st5 {
        stroke: #79aa9f;
      }
    </style>
  </defs>
  <polygon class="st2" points="55.6 19.1 34.6 6.7 13.6 19.1 13.6 43 34.6 55.4 55.6 43 55.6 19.1"/>
  <polyline class="st2" points="34.6 54.7 34.6 34.1 34.6 31.5 13.6 19.1 34.6 31.5 55.6 19.1"/>
  <polygon class="st1" points="55.6 -49.9 34.6 -62.4 13.6 -49.9 13.6 -26 34.6 -13.6 55.6 -26 55.6 -49.9"/>
  <polyline class="st1" points="34.6 -14.3 34.6 -34.9 34.6 -37.5 13.6 -49.9 34.6 -37.5 55.6 -49.9"/>
  <polygon class="st3" points="-16.4 -49.9 -37.4 -62.4 -58.3 -49.9 -58.3 -26 -37.4 -13.6 -16.4 -26 -16.4 -49.9"/>
  <polyline class="st3" points="-37.4 -14.3 -37.4 -34.9 -37.4 -37.5 -58.3 -49.9 -37.4 -37.5 -16.4 -49.9"/>
  <polygon class="st0" points="-88.2 -49.9 -109.2 -62.4 -130.1 -49.9 -130.1 -26 -109.2 -13.6 -88.2 -26 -88.2 -49.9"/>
  <polyline class="st0" points="-109.2 -14.3 -109.2 -34.9 -109.2 -37.5 -130.1 -49.9 -109.2 -37.5 -88.2 -49.9"/>
  <polygon class="st4" points="-88.2 19.1 -109.2 6.7 -130.1 19.1 -130.1 43 -109.2 55.4 -88.2 43 -88.2 19.1"/>
  <polyline class="st4" points="-109.2 54.7 -109.2 34.1 -109.2 31.5 -130.1 19.1 -109.2 31.5 -88.2 19.1"/>
  <polygon class="st5" points="-16.4 19.1 -37.4 6.7 -58.3 19.1 -58.3 43 -37.4 55.4 -16.4 43 -16.4 19.1"/>
  <polyline class="st5" points="-37.4 54.7 -37.4 34.1 -37.4 31.5 -58.3 19.1 -37.4 31.5 -16.4 19.1"/>
</svg>