<?xml version="1.0" encoding="UTF-8"?>
<svg id="Layer_1" data-name="Layer 1" xmlns="http://www.w3.org/2000/svg" viewBox="0 0 187.76 120.13">
  <defs>
    <style>
      .cls-1 {
        stroke: #ff7f1f;
      }

      .cls-1, .cls-2, .cls-3, .cls-4, .cls-5, .cls-6 {
        fill: none;
        stroke-miterlimit: 10;
        stroke-width: 2px;
      }

      .cls-2 {
        stroke: #b79984;
      }

      .cls-3 {
        stroke: #81acc6;
      }

      .cls-4 {
        stroke: #f25733;
      }

      .cls-5 {
        stroke: #22a1ff;
      }

      .cls-6 {
        stroke: #79aa9f;
      }
    </style>
  </defs>
  <polygon class="cls-3" points="186.76 82.64 165.77 70.21 144.79 82.64 144.79 106.53 165.77 118.96 186.76 106.53 186.76 82.64"/>
  <polyline class="cls-3" points="165.77 118.27 165.77 97.66 165.77 95.07 144.79 82.64 165.77 95.07 186.76 82.64"/>
  <polygon class="cls-2" points="186.76 13.59 165.77 1.16 144.79 13.59 144.79 37.48 165.77 49.91 186.76 37.48 186.76 13.59"/>
  <polyline class="cls-2" points="165.77 49.22 165.77 28.61 165.77 26.02 144.79 13.59 165.77 26.02 186.76 13.59"/>
  <polygon class="cls-4" points="114.77 13.59 93.78 1.16 72.8 13.59 72.8 37.48 93.78 49.91 114.77 37.48 114.77 13.59"/>
  <polyline class="cls-4" points="93.78 49.22 93.78 28.61 93.78 26.02 72.8 13.59 93.78 26.02 114.77 13.59"/>
  <polygon class="cls-1" points="42.97 13.59 21.98 1.16 1 13.59 1 37.48 21.98 49.91 42.97 37.48 42.97 13.59"/>
  <polyline class="cls-1" points="21.98 49.22 21.98 28.61 21.98 26.02 1 13.59 21.98 26.02 42.97 13.59"/>
  <polygon class="cls-5" points="42.97 82.64 21.98 70.21 1 82.64 1 106.53 21.98 118.96 42.97 106.53 42.97 82.64"/>
  <polyline class="cls-5" points="21.98 118.27 21.98 97.66 21.98 95.07 1 82.64 21.98 95.07 42.97 82.64"/>
  <polygon class="cls-6" points="114.77 82.64 93.78 70.21 72.8 82.64 72.8 106.53 93.78 118.96 114.77 106.53 114.77 82.64"/>
  <polyline class="cls-6" points="93.78 118.27 93.78 97.66 93.78 95.07 72.8 82.64 93.78 95.07 114.77 82.64"/>
</svg>